#!OML:ASF X:\für Bonn\!DataBase\2005_08_11_Bastian_Final\c3d\Bastian.ASF
:FULLY-SPECIFIED
:DEGREES
203
root 0.182319 17.5419 -8.18161 165.595 -43.3774 -176.525
lowerback 14.3926 -2.96571 8.05504
upperback 6.75419 -3.66511 3.99788
thorax -1.0516 -2.09547 0.235096
lowerneck -1.72287 -13.2298 -0.676788
upperneck -19.5895 -17.4264 13.0022
head -4.36826 -9.76578 4.54528
rclavicle -1.09928e-013 4.6118e-014
rhumerus -221.456 -160.403 115.851
rradius 33.5845
rwrist -144.546
rhand -21.9702 11.5271
rfingers 7.12502
rthumb 4.43751 -18.4064
lclavicle -1.09928e-013 4.6118e-014
lhumerus -22.6089 8.38207 84.7272
lradius 31.5694
lwrist 184.488
lhand -19.8375 9.12991
lfingers 7.12502
lthumb 6.4967 39.0103
rfemur -6.87629 -1.88037 23.6562
rtibia 36.3541
rfoot -11.7399 -5.29935
rtoes 3.70624
lfemur 6.95129 -4.61725 -10.0093
ltibia 42.0929
lfoot -5.74813 -13.94
ltoes -29.6631
204
root 0.181246 17.5485 -8.15277 165.683 -42.7123 -176.531
lowerback 14.2382 -2.91614 8.13917
upperback 6.68429 -3.58285 3.81787
thorax -1.05645 -2.04202 -0.0198537
lowerneck -1.86857 -13.2329 -0.645262
upperneck -19.223 -17.4454 12.9403
head -4.23955 -9.75457 4.48621
rclavicle 1.08735e-013 -2.06736e-014
rhumerus -223.161 -158.805 117.662
rradius 32.5342
rwrist -144.546
rhand -22.8935 11.294
rfingers 7.12502
rthumb 3.54599 -18.6563
lclavicle 1.08735e-013 -2.06736e-014
lhumerus -24.4876 14.2881 81.6207
lradius 29.6809
lwrist 181.679
lhand -19.6961 9.54832
lfingers 7.12502
lthumb 6.63324 39.4244
rfemur -6.9935 -0.958741 23.8366
rtibia 36.2571
rfoot -11.586 -5.54372
rtoes 3.35469
lfemur 7.53886 -4.65656 -10.2618
ltibia 41.5113
lfoot -5.74434 -14.0732
ltoes -28.9129
205
root 0.181966 17.5527 -8.12276 165.773 -42.0518 -176.514
lowerback 14.0774 -2.86386 8.19542
upperback 6.59902 -3.49934 3.66174
thorax -1.07057 -1.98938 -0.234023
lowerneck -1.99677 -13.2312 -0.631423
upperneck -18.8503 -17.4579 12.8626
head -4.11232 -9.73755 4.42644
rclavicle -2.8625e-014 8.5875e-014
rhumerus -224.892 -157.486 119.438
rradius 31.7359
rwrist -144.41
rhand -24.023 10.8855
rfingers 7.12502
rthumb 2.4551 -19.0801
lclavicle -2.8625e-014 8.5875e-014
lhumerus -26.7749 20.8771 77.7616
lradius 27.9221
lwrist 178.142
lhand -19.625 9.89938
lfingers 7.12502
lthumb 6.70185 39.7733
rfemur -7.15308 -0.127644 24.007
rtibia 36.1809
rfoot -11.4344 -5.68641
rtoes 3.17162
lfemur 8.1122 -4.71966 -10.4899
ltibia 40.8934
lfoot -5.68235 -14.2055
ltoes -28.0573
206
root 0.183072 17.5562 -8.0929 165.856 -41.3833 -176.459
lowerback 13.88 -2.83307 8.25759
upperback 6.52777 -3.45059 3.50242
thorax -1.052 -1.95348 -0.451549
lowerneck -2.15716 -13.2056 -0.659917
upperneck -18.4591 -17.437 12.8495
head -3.96593 -9.70594 4.38684
rclavicle 5.32743e-014 -1.90833e-014
rhumerus -226.423 -156.869 120.726
rradius 31.2162
rwrist -144.513
rhand -25.1806 10.6299
rfingers 7.12502
rthumb 1.33717 -19.3456
lclavicle 5.32743e-014 -1.90833e-014
lhumerus -29.6622 27.7624 72.9289
lradius 26.3558
lwrist 174.075
lhand -19.4999 9.80757
lfingers 7.12502
lthumb 6.82259 39.6776
rfemur -7.35151 0.54463 24.188
rtibia 36.1348
rfoot -11.3095 -5.70088
rtoes 2.65153
lfemur 8.67593 -4.76529 -10.67
ltibia 40.2292
lfoot -5.60626 -14.295
ltoes -27.2018
207
root 0.185521 17.5578 -8.06267 165.93 -40.7015 -176.408
lowerback 13.7002 -2.79931 8.28458
upperback 6.44399 -3.39802 3.34311
thorax -1.05405 -1.91677 -0.648465
lowerneck -2.29648 -13.1773 -0.666593
upperneck -18.0264 -17.4116 12.8118
head -3.81536 -9.66913 4.3371
rclavicle 3.39922e-014 -4.6118e-014
rhumerus -227.794 -156.735 121.602
rradius 30.8581
rwrist -144.366
rhand -26.1253 10.2739
rfingers 7.12502
rthumb 0.424739 -19.7054
lclavicle 3.39922e-014 -4.6118e-014
lhumerus -33.5374 34.8553 66.788
lradius 25.0245
lwrist 169.323
lhand -19.5868 9.60836
lfingers 7.12502
lthumb 6.73873 39.4811
rfemur -7.55901 1.14713 24.3508
rtibia 36.1223
rfoot -11.1825 -5.63826
rtoes 2.27256
lfemur 9.2648 -4.81839 -10.8471
ltibia 39.5143
lfoot -5.50922 -14.3761
ltoes -26.3345
